PathFileType	4	(X/Y/Z)	C:/Users/opensim2020/Desktop/walking_exp_matlab/subject03/subject03_trc/subject03_walking16_run_cyclic.trc																																																																																																																																																	
DataRate	CameraRate	NumFrames	NumMarkers	Units	OrigDataRate	OrigDataStartFrame	OrigNumFrames																																																																																																																																													
100	100	5	49	mm	100	203	67																																																																																																																																													
Frame#	Time	RKNE			RTOE			RWRB			LTHI			RELB			RFRM			RUPA			RASI			LTIB			RWRA			RTHI			LSHO			LTOE			RTIB			LWRA			CLAV			LASI			RSHO			RFHD			STRN			LHEE			RFIN			RBHD			LFRM			C7			LWRB			LFIN			LUPA			LBHD			LELB			RANK			RHEE			RBAK			LPSI			T10			LFHD			RPSI			LKNE			LANK			*39			*40			*41			*42			*43			*44			*45			*46			*47			*48		
		X1	Y1	Z1	X2	Y2	Z2	X3	Y3	Z3	X4	Y4	Z4	X5	Y5	Z5	X6	Y6	Z6	X7	Y7	Z7	X8	Y8	Z8	X9	Y9	Z9	X10	Y10	Z10	X11	Y11	Z11	X12	Y12	Z12	X13	Y13	Z13	X14	Y14	Z14	X15	Y15	Z15	X16	Y16	Z16	X17	Y17	Z17	X18	Y18	Z18	X19	Y19	Z19	X20	Y20	Z20	X21	Y21	Z21	X22	Y22	Z22	X23	Y23	Z23	X24	Y24	Z24	X25	Y25	Z25	X26	Y26	Z26	X27	Y27	Z27	X28	Y28	Z28	X29	Y29	Z29	X30	Y30	Z30	X31	Y31	Z31	X32	Y32	Z32	X33	Y33	Z33	X34	Y34	Z34	X35	Y35	Z35	X36	Y36	Z36	X37	Y37	Z37	X38	Y38	Z38	X39	Y39	Z39	X40	Y40	Z40	X41	Y41	Z41	X42	Y42	Z42	X43	Y43	Z43	X44	Y44	Z44	X45	Y45	Z45	X46	Y46	Z46	X47	Y47	Z47	X48	Y48	Z48	X49	Y49	Z49
																																																																																																																																																				
10	0.09	-1473.94812	475.2373	337.14893	-1765.4165	43.9651	238.87694	-1076.46802	1104.71863	353.48749	-1196.87622	667.6156	68.62793	-1259.79224	1097.93958	474.46091	-1158.57263	1103.52405	409.49298	-1276.76013	1179.34595	460.86899	-1245.65247	910.10248	338.9838	-1135.80212	303.02039	100.84736	-1101.16467	1150.31299	341.89825	-1408.4071	641.89917	375.29636	-1285.09973	1393.92651	75.44738	-992.22266	48.58874	182.86096	-1619.896	344.41174	338.54999	-1394.10657	994.0376	-8.73965	-1214.24182	1332.47241	206.37175	-1243.01636	933.04761	111.39938	-1257.77673	1380.52588	359.5722	-1236.97571	1619.98914	284.37433	-1180.94141	1162.72681	197.03395	-1178.10022	60.83881	178.89308	-1024.07275	1146.40491	324.82809	-1344.46521	1547.71826	273.18295	-1419.90857	1100.74219	-70.07108	-1340.30542	1407.06653	214.06436	-1385.49585	989.21161	-66.96438	-1405.18042	900.1012	-38.79561	-1397.41345	1295.39294	-50.83833	-1333.26245	1545.32202	143.28204	-1461.92444	1207.40063	-94.59502	-1766.14661	185.39017	297.4465	-1803.16077	219.62738	251.91959	-1381.82422	1246.35474	322.27878	-1401.82251	968.33417	154.51846	-1391.12903	1103.6842	231.68631	-1220.46619	1618.04321	152.45134	-1395.19348	972.45599	303.91937	-1115.55029	507.41293	105.11153	-1135.39404	91.68535	142.00093	NaN	NaN	NaN	NaN	NaN	NaN	NaN	NaN	NaN	NaN	NaN	NaN	NaN	NaN	NaN	NaN	NaN	NaN	NaN	NaN	NaN	-1320.45874	1656.1709	194.1223	NaN	NaN	NaN	NaN	NaN	NaN
11	0.1	-1442.19983	478.32452	337.18765	-1748.0636	53.91669	243.21284	-1047.0686	1107.5033	351.49463	-1167.49194	665.77362	69.00983	-1228.41553	1101.77527	475.69803	-1128.44165	1106.96606	408.84921	-1245.33435	1183.99475	461.84055	-1211.13269	911.97668	339.47748	-1096.90283	300.6084	103.91408	-1072.02698	1153.03247	339.77704	-1376.08118	645.78644	375.87503	-1254.06494	1395.25195	75.6255	-933.591	54.19806	188.09303	-1589.52136	349.35474	340.04355	-1360.69922	998.83081	-8.91339	-1183.46912	1334.98108	205.98978	-1210.12476	935.09503	112.43097	-1226.87744	1383.51929	358.37738	-1206.69214	1621.3103	284.44019	-1148.63818	1165.79504	197.024	-1120.91943	59.70873	187.40398	-994.67175	1148.61914	321.29108	-1314.4906	1549.25696	272.66043	-1388.42627	1104.77686	-71.14143	-1309.64001	1409.02185	213.51419	-1353.55115	992.86407	-67.04208	-1373.65955	904.13495	-36.97501	-1366.91663	1299.45459	-51.12494	-1302.71436	1547.01501	142.7923	-1431.69189	1211.23157	-96.1551	-1741.02637	195.06601	301.13654	-1777.85681	232.18452	258.11105	-1349.78198	1248.51648	322.71497	-1368.30151	971.06592	156.4171	-1358.35742	1106.38708	232.93272	-1189.83154	1619.49304	152.4702	-1359.72424	975.43439	306.44708	-1088.14124	504.10687	104.1423	-1081.71106	90.62878	148.54831	NaN	NaN	NaN	NaN	NaN	NaN	NaN	NaN	NaN	NaN	NaN	NaN	NaN	NaN	NaN	NaN	NaN	NaN	NaN	NaN	NaN	-1289.52075	1657.90979	193.79858	NaN	NaN	NaN	NaN	NaN	NaN
12	0.11	-1405.99719	477.36853	336.78525	-1728.22986	64.11353	248.33443	-1017.76483	1106.27917	350.6456	-1139.81287	661.34723	67.71679	-1197.66736	1103.70313	477.48184	-1098.62476	1107.50061	409.06644	-1214.39673	1187.39954	463.51721	-1177.56079	913.1991	340.02124	-1063.28308	299.02557	107.56156	-1042.33582	1151.97839	338.672	-1339.94556	646.05103	376.49994	-1222.65442	1395.13037	74.89362	-882.89606	60.40536	192.57405	-1557.13306	352.21936	341.07263	-1324.89697	1000.85638	-9.40366	-1152.6521	1336.34656	205.72302	-1178.22925	935.44611	113.39571	-1196.05347	1385.2998	357.60861	-1176.85071	1622.02734	284.37418	-1116.96362	1167.74268	198.06277	-1071.18835	59.97169	196.14539	-965.2027	1146.17261	318.5755	-1284.51746	1549.84399	272.05499	-1355.24524	1105.86145	-72.57548	-1278.93835	1409.79114	212.59535	-1319.59216	993.77661	-67.41873	-1340.00793	905.38495	-35.0816	-1335.11157	1300.03662	-51.6646	-1271.88501	1547.77356	142.1841	-1399.94556	1211.86389	-97.98696	-1716.4646	206.2695	303.20303	-1753.63513	244.26749	259.87161	-1318.11658	1249.31555	322.66541	-1335.58179	972.65338	157.83069	-1325.6604	1107.90381	233.92964	-1159.20337	1620.41125	152.43935	-1325.12378	977.74713	308.517	-1060.67456	500.62485	103.76101	-1035.32581	90.41024	154.842	NaN	NaN	NaN	NaN	NaN	NaN	NaN	NaN	NaN	NaN	NaN	NaN	NaN	NaN	NaN	NaN	NaN	NaN	NaN	NaN	NaN	-1258.43762	1658.40833	193.27397	NaN	NaN	NaN	NaN	NaN	NaN
13	0.12	-1366.49854	473.43146	336.37848	-1704.32568	75.58746	254.70233	-988.57855	1101.13757	351.26553	-1113.39636	655.50043	65.74601	-1167.42065	1104.03345	479.91339	-1069.20288	1105.05066	409.97629	-1184.19128	1189.37036	465.5141	-1144.63208	913.91974	340.33472	-1032.47717	297.89786	111.52776	-1011.51044	1147.29822	337.90228	-1301.4613	643.07996	376.77753	-1190.89722	1393.7019	73.42629	-841.9455	64.68452	196.59462	-1523.66663	354.3786	342.20792	-1287.0979	999.90045	-10.00846	-1121.36365	1336.78955	205.41718	-1147.09985	934.20697	114.11138	-1165.08069	1385.84631	357.45975	-1147.15259	1622.32581	284.41418	-1084.90479	1168.18591	198.7769	-1030.38879	60.6817	204.41055	-935.43542	1138.8446	317.15375	-1254.47559	1549.72314	271.35983	-1320.38965	1103.90002	-73.71321	-1247.98389	1409.41663	211.3119	-1283.94006	991.72589	-67.52791	-1303.48511	903.99054	-33.27734	-1302.24109	1297.57471	-52.80335	-1240.98694	1547.7074	141.56032	-1366.46411	1209.33521	-100.22344	-1691.99695	219.2619	304.70438	-1728.51599	256.57251	259.45755	-1286.73889	1248.91284	322.29053	-1303.80725	972.72827	158.6098	-1293.51526	1108.22375	234.60464	-1128.72522	1620.91235	152.44321	-1291.69275	979.27374	309.96899	-1033.68311	496.79413	103.72759	-996.86334	90.43793	161.45058	NaN	NaN	NaN	NaN	NaN	NaN	NaN	NaN	NaN	NaN	NaN	NaN	NaN	NaN	NaN	NaN	NaN	NaN	NaN	NaN	NaN	-1228.31848	1658.40466	192.82733	NaN	NaN	NaN	NaN	NaN	NaN
14	0.13	-1323.97437	467.65845	336.24884	-1677.98389	87.34452	261.05103	-959.79419	1092.02966	353.00864	-1087.7865	648.91937	63.45732	-1138.05823	1102.89832	482.74829	-1040.1123	1099.75208	411.58789	-1154.83496	1189.90637	467.52972	-1112.49512	914.28491	340.76456	-1004.29211	296.54388	115.72141	-982.51111	1138.56787	338.81454	-1261.88586	638.7757	376.26593	-1158.80359	1391.24976	71.82536	-810.67584	64.01979	199.68066	-1488.99524	357.08038	344.2847	-1247.72485	996.17285	-10.19423	-1089.87573	1336.33716	205.21339	-1117.09558	932.08472	114.99883	-1133.92578	1385.36108	357.92374	-1117.61511	1622.17004	284.40005	-1053.38733	1167.74963	199.81828	-999.0249	61.01617	211.15448	-905.55597	1126.83044	317.05026	-1224.42297	1548.92188	270.57645	-1283.05115	1098.82544	-75.08899	-1216.78052	1408.15967	209.95192	-1245.43811	987.04285	-67.67419	-1264.20715	899.69232	-31.60828	-1267.92627	1292.36926	-54.40616	-1210.02051	1547.06555	140.91423	-1330.11401	1203.76746	-102.4081	-1665.1051	232.73868	305.89551	-1700.61377	269.02509	258.6644	-1255.46667	1247.66553	321.82098	-1272.47668	971.51074	159.20444	-1262.00195	1107.29053	234.90724	-1098.20459	1620.91992	152.53912	-1259.82056	979.81561	310.96774	-1006.22913	493.48828	104.28257	-966.82288	90.07258	167.17238	NaN	NaN	NaN	NaN	NaN	NaN	NaN	NaN	NaN	NaN	NaN	NaN	NaN	NaN	NaN	NaN	NaN	NaN	NaN	NaN	NaN	-1198.60449	1657.73633	192.26727	NaN	NaN	NaN	NaN	NaN	NaN
